<?xml version="1.0" encoding="UTF-8"?>
<svg xmlns="http://www.w3.org/2000/svg" viewBox="0 0 850.39 850.39">
  <defs>
    <style>
      .cls-1 {
        fill: #f7c00e;
      }

      .cls-2 {
        fill: #fff;
      }

      .cls-3, .cls-4 {
        fill: #1d1d1b;
      }

      .cls-5, .cls-6 {
        fill: #2a4294;
      }

      .cls-6 {
        font-family: PoplarStd, 'Poplar Std';
        font-size: 48px;
      }

      .cls-7 {
        letter-spacing: -.07em;
      }

      .cls-4 {
        mix-blend-mode: darken;
        opacity: .1;
      }

      .cls-8 {
        letter-spacing: 0em;
      }

      .cls-9 {
        isolation: isolate;
      }
    </style>
  </defs>
  <g class="cls-9">
    <g id="Ebene_1" data-name="Ebene 1">
      <path class="cls-3" d="m161.11,697.99c-4.07,0-7.71-.92-10.84-3.05-13.39-9.13-7.07-32.5-.38-57.23,2.45-9.04,4.76-17.59,5.89-24.71,1.49-9.37.11-11.47.05-11.55l-.33-.37c-32.41-39.27-50.26-89-50.26-140,0-58.79,22.89-114.06,64.46-155.63,41.57-41.57,96.84-64.46,155.63-64.46s114.06,22.89,155.63,64.46c41.57,41.57,64.46,96.84,64.46,155.63s-22.89,114.06-64.46,155.63-96.84,64.46-155.63,64.46c-26.12,0-51.69-4.53-75.99-13.47l-.46-.17-.43-.23c-6.74-3.53-28.83,7.44-43.44,14.7-16.97,8.43-32.22,16-43.9,16Zm5.81-106.65c8.54,9.29,3.64,27.4-2.55,50.29-2.76,10.22-5.62,20.78-6.62,29.11-1.23,10.19.95,11.8.98,11.82.26.17,2.81,1.62,12.73-1.82,7.84-2.71,17.09-7.31,26.88-12.18,22.13-10.99,43.05-21.38,56.59-14.8,22.52,8.23,46.21,12.4,70.41,12.4,113.09,0,205.1-92.01,205.1-205.1s-92-205.1-205.1-205.1-205.1,92.01-205.1,205.1c0,47.45,16.58,93.71,46.68,130.28Z"/>
      <path class="cls-3" d="m686.05,620.4c-12.12,0-27.7-9.84-43.96-20.11-7.92-5-15.41-9.73-21.88-12.91-8.51-4.19-10.93-3.48-11.03-3.45l-.45.21c-25.12,10.35-51.58,15.92-78.65,16.54-4.12.11-7.58-3.18-7.67-7.33s3.18-7.58,7.33-7.67c25.14-.58,49.73-5.74,73.07-15.33,11.39-5.42,27.26,4.59,47.3,17.25,8.95,5.65,18.21,11.5,25.86,14.9,9.37,4.17,11.56,2.57,11.58,2.55.25-.19,2.38-2.21,2.01-12.7-.29-8.29-1.95-18.48-3.72-29.28-3.99-24.38-7.75-47.43,2.52-58.43,14.5-19.09,25.46-40.5,32.6-63.64,33.31-108.07-27.51-223.1-135.58-256.41-34.46-10.62-71.14-12-106.08-3.98-33.91,7.78-65.53,24.18-91.44,47.41-3.08,2.76-7.83,2.51-10.59-.58-2.77-3.08-2.51-7.83.58-10.59,27.8-24.93,61.72-42.52,98.1-50.87,37.5-8.6,76.88-7.13,113.85,4.27,56.18,17.32,102.26,55.48,129.74,107.45,27.48,51.97,33.08,111.53,15.76,167.71-7.7,24.96-19.56,48.06-35.26,68.65l-.3.39-.35.35c-5.36,5.4-1.38,29.74,1.25,45.85,4.12,25.22,7.68,47.01-3.75,56.12-3.16,2.52-6.81,3.61-10.84,3.61Z"/>
      <g>
        <g>
          <g>
            <path class="cls-1" d="m389.11,570.08c-20.72,11.96-42.36,19.97-63.66,24.2,22.85,0,46-5.82,67.2-18.06,21.21-12.24,37.82-29.39,49.24-49.17-14.31,16.33-32.06,31.07-52.78,43.03Z"/>
            <path class="cls-1" d="m261.55,349.14c20.72-11.96,42.36-19.97,63.66-24.2-22.85,0-46,5.82-67.2,18.06s-37.82,29.39-49.24,49.17c14.31-16.33,32.06-31.07,52.78-43.03Z"/>
          </g>
          <ellipse class="cls-2" cx="325.33" cy="459.61" rx="124.72" ry="104.88" transform="translate(-186.22 224.24) rotate(-30)"/>
          <path class="cls-5" d="m325.45,594.27c21.3-4.23,42.94-12.23,63.66-24.2,20.72-11.96,38.48-26.7,52.78-43.03,23.26-40.3,24.98-91.56.04-134.76-24.94-43.19-70.19-67.34-116.73-67.34-21.3,4.23-42.94,12.23-63.66,24.2-20.72,11.96-38.48,26.7-52.78,43.03-23.26,40.3-24.98,91.56-.04,134.76,24.94,43.19,70.19,67.34,116.73,67.34Zm-52.56-225.5c59.65-34.44,131.49-21.7,160.46,28.47,28.96,50.16,4.08,118.75-55.57,153.19-59.65,34.44-131.49,21.7-160.46-28.47-28.96-50.16-4.08-118.75,55.57-153.19Z"/>
          <path class="cls-1" d="m208.73,501.62c1.99,7.02,4.83,13.84,8.59,20.35,3.06,5.3,6.61,10.18,10.56,14.64,36.2-6.04,76.82-20.69,116.68-43.7,39.86-23.01,72.86-50.86,96.19-79.19-1.88-5.65-4.33-11.16-7.4-16.47-3.76-6.51-8.25-12.39-13.33-17.61-35.96,6.14-76.21,20.74-115.72,43.55-39.5,22.81-72.28,50.37-95.57,78.44Z"/>
        </g>
        <!-- <text class="cls-6" transform="translate(248.33 524.33) rotate(-30)"><tspan x="0" y="0">M</tspan><tspan class="cls-7" x="33.07" y="0">A</tspan><tspan x="53.23" y="0">TCH</tspan><tspan class="cls-8" x="120.58" y="0">B</tspan><tspan x="141.21" y="0">ALL</tspan></text> -->
        <path class="cls-4" d="m368.42,551.19c-74.36,0-134.65-60.28-134.65-134.65,0-26.15,7.46-50.55,20.36-71.2-38.09,23.78-63.44,66.07-63.44,114.29,0,74.36,60.28,134.65,134.65,134.65,48.22,0,90.51-25.35,114.29-63.44-20.66,12.9-45.06,20.36-71.2,20.36Z"/>
      </g>
    </g>
  </g>
</svg>